<svg xmlns="http://www.w3.org/2000/svg" viewBox="0 0 320 200" role="img" aria-label="Crossover">
  <defs>
    <linearGradient id="bg7" x1="0" y1="0" x2="0" y2="1">
      <stop offset="0" stop-color="#fbfaf7"/>
      <stop offset="1" stop-color="#eee6da"/>
    </linearGradient>
    <linearGradient id="metal7" x1="0" y1="0" x2="1" y2="1">
      <stop offset="0" stop-color="#7c8791"/>
      <stop offset=".5" stop-color="#c9d0d7"/>
      <stop offset="1" stop-color="#626d77"/>
    </linearGradient>
    <filter id="shadow7" x="-20%" y="-20%" width="150%" height="160%">
      <feDropShadow dx="0" dy="8" stdDeviation="7" flood-color="#000" flood-opacity=".18"/>
    </filter>
  </defs>
  <rect width="320" height="200" rx="22" fill="url(#bg7)"/>
  <ellipse cx="160" cy="160" rx="108" ry="16" fill="#e0d6c7"/>
  <g filter="url(#shadow7)">
    <rect x="70" y="42" width="11" height="106" rx="5.5" fill="url(#metal7)"/>
    <rect x="239" y="42" width="11" height="106" rx="5.5" fill="url(#metal7)"/>
    <rect x="64" y="42" width="192" height="11" rx="5.5" fill="#212933"/>
    <line x1="76" y1="59" x2="128" y2="126" stroke="#1699d1" stroke-width="6" stroke-linecap="round"/>
    <line x1="244" y1="59" x2="192" y2="126" stroke="#1699d1" stroke-width="6" stroke-linecap="round"/>
    <circle cx="128" cy="126" r="8" fill="#0f1720"/><circle cx="192" cy="126" r="8" fill="#0f1720"/>
    <rect x="144" y="119" width="32" height="15" rx="7.5" fill="#f0a933"/>
    <rect x="136" y="148" width="48" height="7" rx="3.5" fill="#a2adbb"/>
  </g>
  <text x="160" y="180" text-anchor="middle" font-family="Arial, sans-serif" font-size="20" font-weight="700" fill="#111827">Crossover</text>
</svg>
