<svg xmlns="http://www.w3.org/2000/svg" viewBox="0 0 320 200" role="img" aria-label="Esteira">
  <defs>
    <linearGradient id="bg9" x1="0" y1="0" x2="0" y2="1">
      <stop offset="0" stop-color="#f5f8f9"/>
      <stop offset="1" stop-color="#e4eaed"/>
    </linearGradient>
    <linearGradient id="belt" x1="0" y1="0" x2="1" y2="0">
      <stop offset="0" stop-color="#1f252c"/>
      <stop offset="1" stop-color="#3c4651"/>
    </linearGradient>
    <linearGradient id="metal9" x1="0" y1="0" x2="1" y2="1">
      <stop offset="0" stop-color="#7a8590"/>
      <stop offset=".5" stop-color="#cdd3d8"/>
      <stop offset="1" stop-color="#646f79"/>
    </linearGradient>
    <filter id="shadow9" x="-20%" y="-20%" width="150%" height="160%">
      <feDropShadow dx="0" dy="8" stdDeviation="7" flood-color="#000" flood-opacity=".18"/>
    </filter>
  </defs>
  <rect width="320" height="200" rx="22" fill="url(#bg9)"/>
  <ellipse cx="164" cy="162" rx="110" ry="16" fill="#d3d9dc"/>
  <g filter="url(#shadow9)">
    <path d="M96 142h124l22-66H140z" fill="url(#belt)"/>
    <path d="M148 74 176 42h60v15h-53l-20 24z" fill="url(#metal9)"/>
    <rect x="228" y="36" width="22" height="12" rx="6" fill="#1991cc"/>
    <circle cx="120" cy="147" r="12" fill="#67737f"/><circle cx="212" cy="147" r="12" fill="#67737f"/>
    <line x1="122" y1="147" x2="204" y2="147" stroke="#a3aebb" stroke-width="6" stroke-linecap="round"/>
    <rect x="154" y="50" width="18" height="7" rx="3.5" fill="#2b333e"/>
  </g>
  <text x="160" y="180" text-anchor="middle" font-family="Arial, sans-serif" font-size="20" font-weight="700" fill="#111827">Esteira</text>
</svg>
