<svg xmlns="http://www.w3.org/2000/svg" viewBox="0 0 320 200" role="img" aria-label="Hack squat">
  <defs>
    <linearGradient id="bg-hack" x1="0" y1="0" x2="0" y2="1">
      <stop offset="0" stop-color="#f5f7f8"/>
      <stop offset="1" stop-color="#e2e7ea"/>
    </linearGradient>
    <linearGradient id="metal-hack" x1="0" y1="0" x2="1" y2="1">
      <stop offset="0" stop-color="#7b8590"/>
      <stop offset=".45" stop-color="#d0d5db"/>
      <stop offset="1" stop-color="#5e6873"/>
    </linearGradient>
    <linearGradient id="pad-hack" x1="0" y1="0" x2="1" y2="1">
      <stop offset="0" stop-color="#22272e"/>
      <stop offset="1" stop-color="#4a515c"/>
    </linearGradient>
    <radialGradient id="plate-hack" cx="45%" cy="40%" r="60%">
      <stop offset="0" stop-color="#5ec3ff"/>
      <stop offset="1" stop-color="#167ab8"/>
    </radialGradient>
    <filter id="shadow-hack" x="-20%" y="-20%" width="150%" height="170%">
      <feDropShadow dx="0" dy="8" stdDeviation="7" flood-color="#000" flood-opacity=".18"/>
    </filter>
  </defs>
  <rect width="320" height="200" rx="22" fill="url(#bg-hack)"/>
  <ellipse cx="160" cy="162" rx="110" ry="16" fill="#cfd5da"/>
  <g filter="url(#shadow-hack)">
    <path d="M92 146 160 62l13 12-68 84z" fill="url(#metal-hack)"/>
    <path d="M160 62h68l17 20h-74z" fill="url(#pad-hack)"/>
    <rect x="104" y="134" width="42" height="14" rx="7" fill="url(#pad-hack)"/>
    <rect x="118" y="117" width="18" height="18" rx="9" fill="#f0a933"/>
    <rect x="84" y="148" width="154" height="8" rx="4" fill="#a4aebb"/>
    <circle cx="248" cy="81" r="15" fill="url(#plate-hack)"/>
    <circle cx="266" cy="81" r="10" fill="#3b434d"/>
    <rect x="136" y="97" width="26" height="12" rx="6" fill="#1e2530"/>
    <rect x="132" y="109" width="38" height="9" rx="4.5" fill="#707b86"/>
  </g>
  <text x="160" y="180" text-anchor="middle" font-family="Arial, sans-serif" font-size="20" font-weight="700" fill="#111827">Hack squat</text>
</svg>
