<svg xmlns="http://www.w3.org/2000/svg" viewBox="0 0 320 200" role="img" aria-label="Leg press">
  <defs>
    <linearGradient id="bg2" x1="0" y1="0" x2="0" y2="1">
      <stop offset="0" stop-color="#f8fafc"/>
      <stop offset="1" stop-color="#e6ecf4"/>
    </linearGradient>
    <linearGradient id="metal2" x1="0" y1="0" x2="1" y2="1">
      <stop offset="0" stop-color="#7c8894"/>
      <stop offset=".5" stop-color="#c5cdd7"/>
      <stop offset="1" stop-color="#616c77"/>
    </linearGradient>
    <linearGradient id="pad2" x1="0" y1="0" x2="1" y2="1">
      <stop offset="0" stop-color="#26303a"/>
      <stop offset="1" stop-color="#454f5a"/>
    </linearGradient>
    <radialGradient id="plateDark" cx="40%" cy="40%" r="65%">
      <stop offset="0" stop-color="#687482"/>
      <stop offset="1" stop-color="#2f3944"/>
    </radialGradient>
    <filter id="shadow2" x="-20%" y="-20%" width="150%" height="160%">
      <feDropShadow dx="0" dy="8" stdDeviation="7" flood-color="#000" flood-opacity=".18"/>
    </filter>
  </defs>
  <rect width="320" height="200" rx="22" fill="url(#bg2)"/>
  <ellipse cx="160" cy="160" rx="112" ry="16" fill="#d1d9e4"/>
  <g filter="url(#shadow2)">
    <path d="M84 145 164 62l12 11-81 84z" fill="url(#metal2)"/>
    <path d="M164 62h78l8 16h-86z" fill="url(#pad2)"/>
    <rect x="92" y="132" width="38" height="14" rx="7" fill="url(#pad2)"/>
    <rect x="100" y="115" width="18" height="18" rx="8" fill="#f0a933"/>
    <rect x="118" y="92" width="30" height="12" rx="6" fill="#1c2430"/>
    <circle cx="245" cy="70" r="16" fill="url(#plateDark)"/>
    <circle cx="264" cy="70" r="11" fill="#67727f"/>
    <rect x="74" y="148" width="170" height="8" rx="4" fill="#a3afbd"/>
  </g>
  <text x="160" y="180" text-anchor="middle" font-family="Arial, sans-serif" font-size="20" font-weight="700" fill="#111827">Leg press</text>
</svg>
