<svg xmlns="http://www.w3.org/2000/svg" viewBox="0 0 320 200" role="img" aria-label="Puxada alta">
  <defs>
    <linearGradient id="bg3" x1="0" y1="0" x2="0" y2="1">
      <stop offset="0" stop-color="#f8fbfa"/>
      <stop offset="1" stop-color="#e5efea"/>
    </linearGradient>
    <linearGradient id="metal3" x1="0" y1="0" x2="1" y2="1">
      <stop offset="0" stop-color="#7b8793"/>
      <stop offset=".45" stop-color="#c9d0d6"/>
      <stop offset="1" stop-color="#5d6975"/>
    </linearGradient>
    <filter id="shadow3" x="-20%" y="-20%" width="150%" height="160%">
      <feDropShadow dx="0" dy="8" stdDeviation="7" flood-color="#000" flood-opacity=".18"/>
    </filter>
  </defs>
  <rect width="320" height="200" rx="22" fill="url(#bg3)"/>
  <ellipse cx="160" cy="160" rx="108" ry="16" fill="#d2ddd8"/>
  <g filter="url(#shadow3)">
    <rect x="76" y="44" width="10" height="106" rx="5" fill="url(#metal3)"/>
    <rect x="234" y="44" width="10" height="106" rx="5" fill="url(#metal3)"/>
    <rect x="72" y="44" width="176" height="10" rx="5" fill="#232a33"/>
    <rect x="150" y="54" width="16" height="58" rx="8" fill="#9aa5af"/>
    <path d="M120 86q40 24 80 0" fill="none" stroke="#1699d1" stroke-width="8" stroke-linecap="round"/>
    <circle cx="120" cy="86" r="5" fill="#111827"/><circle cx="200" cy="86" r="5" fill="#111827"/>
    <rect x="140" y="121" width="40" height="14" rx="7" fill="#303744"/>
    <rect x="150" y="104" width="20" height="18" rx="9" fill="#f0a933"/>
    <rect x="138" y="149" width="44" height="7" rx="3.5" fill="#a3afbd"/>
  </g>
  <text x="160" y="180" text-anchor="middle" font-family="Arial, sans-serif" font-size="20" font-weight="700" fill="#111827">Puxada alta</text>
</svg>
