<svg xmlns="http://www.w3.org/2000/svg" viewBox="0 0 320 200" role="img" aria-label="Smith machine">
  <defs>
    <linearGradient id="bg8" x1="0" y1="0" x2="0" y2="1">
      <stop offset="0" stop-color="#f6f8fb"/>
      <stop offset="1" stop-color="#e5eaf0"/>
    </linearGradient>
    <linearGradient id="metal8" x1="0" y1="0" x2="1" y2="1">
      <stop offset="0" stop-color="#7a8590"/>
      <stop offset=".5" stop-color="#ccd1d6"/>
      <stop offset="1" stop-color="#606b76"/>
    </linearGradient>
    <filter id="shadow8" x="-20%" y="-20%" width="150%" height="160%">
      <feDropShadow dx="0" dy="8" stdDeviation="7" flood-color="#000" flood-opacity=".18"/>
    </filter>
  </defs>
  <rect width="320" height="200" rx="22" fill="url(#bg8)"/>
  <ellipse cx="160" cy="160" rx="110" ry="16" fill="#d5dbe4"/>
  <g filter="url(#shadow8)">
    <rect x="84" y="42" width="10" height="108" rx="5" fill="url(#metal8)"/>
    <rect x="226" y="42" width="10" height="108" rx="5" fill="url(#metal8)"/>
    <rect x="74" y="149" width="172" height="8" rx="4" fill="#9ea9b8"/>
    <rect x="96" y="74" width="128" height="9" rx="4.5" fill="#202833"/>
    <rect x="95" y="71" width="4" height="15" rx="2" fill="#707c89"/>
    <rect x="221" y="71" width="4" height="15" rx="2" fill="#707c89"/>
    <circle cx="88" cy="78" r="13" fill="#1991cc"/>
    <circle cx="232" cy="78" r="13" fill="#1991cc"/>
    <circle cx="69" cy="78" r="8.5" fill="#39424c"/>
    <circle cx="251" cy="78" r="8.5" fill="#39424c"/>
    <rect x="140" y="116" width="40" height="14" rx="7" fill="#f0a933"/>
  </g>
  <text x="160" y="180" text-anchor="middle" font-family="Arial, sans-serif" font-size="20" font-weight="700" fill="#111827">Smith machine</text>
</svg>
