<svg xmlns="http://www.w3.org/2000/svg" viewBox="0 0 320 200" role="img" aria-label="Supino reto">
  <rect width="320" height="200" rx="20" fill="#f4efe4"/>
  <rect x="18" y="18" width="284" height="164" rx="16" fill="#fffaf0" stroke="#d8cfbf"/>
  <rect x="92" y="92" width="92" height="14" rx="7" fill="#2a2f35"/>
  <rect x="106" y="76" width="54" height="16" rx="8" fill="#4b5563"/>
  <rect x="86" y="106" width="10" height="42" rx="5" fill="#576270"/>
  <rect x="180" y="106" width="10" height="42" rx="5" fill="#576270"/>
  <rect x="220" y="50" width="8" height="92" rx="4" fill="#6b7280"/>
  <rect x="76" y="58" width="176" height="8" rx="4" fill="#1f2937"/>
  <circle cx="70" cy="62" r="12" fill="#0ea5e9"/><circle cx="258" cy="62" r="12" fill="#0ea5e9"/>
  <circle cx="52" cy="62" r="8" fill="#334155"/><circle cx="276" cy="62" r="8" fill="#334155"/>
  <circle cx="154" cy="102" r="10" fill="#f59e0b"/>
  <rect x="118" y="138" width="38" height="8" rx="4" fill="#94a3b8"/>
  <text x="160" y="172" text-anchor="middle" font-family="Arial, sans-serif" font-size="20" font-weight="700" fill="#111827">Supino reto</text>
</svg>
