<svg xmlns="http://www.w3.org/2000/svg" viewBox="0 0 320 200" role="img" aria-label="Supino reto">
  <defs>
    <linearGradient id="bg" x1="0" y1="0" x2="0" y2="1">
      <stop offset="0" stop-color="#f7f8fa"/>
      <stop offset="1" stop-color="#e7eaef"/>
    </linearGradient>
    <linearGradient id="metal" x1="0" y1="0" x2="1" y2="1">
      <stop offset="0" stop-color="#7d8793"/>
      <stop offset="0.35" stop-color="#c3cad3"/>
      <stop offset="0.65" stop-color="#5e6873"/>
      <stop offset="1" stop-color="#a8b0ba"/>
    </linearGradient>
    <linearGradient id="pad" x1="0" y1="0" x2="1" y2="1">
      <stop offset="0" stop-color="#23272e"/>
      <stop offset="1" stop-color="#4a515b"/>
    </linearGradient>
    <radialGradient id="plateBlue" cx="50%" cy="45%" r="60%">
      <stop offset="0" stop-color="#57c5ff"/>
      <stop offset="1" stop-color="#177fbd"/>
    </radialGradient>
    <filter id="shadow" x="-20%" y="-20%" width="140%" height="160%">
      <feDropShadow dx="0" dy="8" stdDeviation="7" flood-color="#000" flood-opacity=".18"/>
    </filter>
  </defs>
  <rect width="320" height="200" rx="22" fill="url(#bg)"/>
  <ellipse cx="164" cy="160" rx="106" ry="16" fill="#cfd5de"/>
  <g filter="url(#shadow)">
    <rect x="92" y="105" width="96" height="12" rx="6" fill="url(#pad)"/>
    <rect x="112" y="85" width="56" height="18" rx="9" fill="url(#pad)"/>
    <rect x="98" y="116" width="8" height="34" rx="4" fill="url(#metal)"/>
    <rect x="176" y="116" width="8" height="34" rx="4" fill="url(#metal)"/>
    <path d="M96 149h-14l-8 10h22zM182 149h14l8 10h-22z" fill="#626c77"/>
    <rect x="224" y="58" width="7" height="92" rx="3.5" fill="url(#metal)"/>
    <rect x="78" y="66" width="178" height="7" rx="3.5" fill="#222831"/>
    <rect x="74" y="63" width="4" height="13" rx="2" fill="#717b86"/>
    <rect x="256" y="63" width="4" height="13" rx="2" fill="#717b86"/>
    <circle cx="66" cy="69.5" r="14" fill="url(#plateBlue)"/>
    <circle cx="262" cy="69.5" r="14" fill="url(#plateBlue)"/>
    <circle cx="48" cy="69.5" r="9" fill="#3a414b"/>
    <circle cx="280" cy="69.5" r="9" fill="#3a414b"/>
    <circle cx="155" cy="111" r="9" fill="#f0a933"/>
  </g>
  <text x="160" y="180" text-anchor="middle" font-family="Arial, sans-serif" font-size="20" font-weight="700" fill="#111827">Supino reto</text>
</svg>
